<svg width="61" height="64" viewBox="0 0 61 64" fill="none" xmlns="http://www.w3.org/2000/svg">
<path d="M36.5753 6.54743C36.5753 9.70058 30.2799 30.2469 30.2799 30.2469C30.2799 30.2469 24.0929 9.70058 24.0929 6.54743C24.0929 3.29258 26.915 0.64801 30.2799 0.64801C33.7532 0.64801 36.5753 3.29258 36.5753 6.54743ZM3.46979 24.4492C0.430594 22.8217 -0.546298 19.2617 1.19039 16.4137C2.92707 13.6674 6.72605 12.6503 9.65671 14.2777C12.6959 15.9051 28.5431 31.264 28.5431 31.264C28.5431 31.264 6.40044 26.0766 3.46979 24.4492ZM3.46979 40.0114C6.40044 38.384 28.5431 33.1966 28.5431 33.1966C28.5431 33.1966 12.6959 48.5554 9.65671 50.0811C6.72605 51.7086 2.92707 50.7932 1.19039 47.9451C-0.546298 45.1989 0.430594 41.6389 3.46979 40.0114ZM24.0929 57.9132C24.0929 54.6583 30.2799 34.112 30.2799 34.112C30.2799 34.112 36.5753 54.6583 36.5753 57.9132C36.5753 61.168 33.7532 63.7109 30.2799 63.7109C26.915 63.7109 24.0929 61.168 24.0929 57.9132ZM57.1984 40.0114C60.2376 41.6389 61.2145 45.1989 59.4778 47.9451C57.7411 50.7932 53.9422 51.7086 50.903 50.0811C47.9723 48.5554 32.125 33.1966 32.125 33.1966C32.125 33.1966 54.1593 38.384 57.1984 40.0114ZM50.903 14.2777C53.9422 12.6503 57.7411 13.6674 59.4778 16.4137C61.2145 19.2617 60.2376 22.8217 57.1984 24.4492C54.1593 26.0766 32.125 31.264 32.125 31.264C32.125 31.264 47.9723 15.9051 50.903 14.2777Z" fill="#434B50"/>
</svg>
