<svg width="197" height="197" viewBox="0 0 197 197" fill="none" xmlns="http://www.w3.org/2000/svg">
<path d="M101.393 172V184.727H99.8105V173.406H93.9043V172H101.393Z" fill="#FFFDF3"/>
<path d="M75.6129 168.143C78.2403 168.987 79.2536 171.386 78.3492 174.17C77.442 176.962 75.1652 178.366 72.6994 177.565C70.7935 176.946 69.1593 175.121 70.2594 171.763L70.455 171.161L77.0418 173.302C77.5912 171.355 76.8134 169.937 75.2001 169.413C74.1134 169.06 73.2732 169.314 72.7569 169.765L71.2188 169.266C72.0933 168.025 73.7432 167.526 75.6129 168.143ZM76.6369 174.519L71.5129 172.854C71.0297 174.37 71.6159 175.808 73.1122 176.294C74.6836 176.805 76.0803 175.891 76.6369 174.519Z" fill="#FFFDF3"/>
<path d="M47.481 164.082L48.2249 163.058L49.8461 164.236L53.1008 159.756C53.826 158.773 53.447 158.248 52.928 157.87C52.7076 157.71 52.365 157.494 52.182 157.372L53.0086 156.234C53.2213 156.345 53.5406 156.534 53.9032 156.797C54.9342 157.546 55.5501 158.972 54.5653 160.342L51.0834 165.134L52.2495 165.982L51.5056 167.006L50.3394 166.158L48.9963 168.007L47.759 167.108L49.1022 165.259L47.481 164.082Z" fill="#FFFDF3"/>
<path d="M28.0991 148.299L31.6543 145.716L32.4706 146.839L28.9153 149.422L28.0991 148.299Z" fill="#FFFDF3"/>
<path d="M21.2413 121.44C20.5541 121.886 20.2484 122.623 20.5849 123.687C20.9572 124.804 21.8171 125.403 22.5805 125.164C23.1796 124.96 23.4317 124.342 23.3459 123.196L23.2402 121.734C23.0978 119.987 23.6506 118.929 24.9101 118.511C26.4843 118.009 28.0617 118.91 28.7921 121.186C29.4632 123.223 28.9459 124.731 27.3696 125.512L26.8807 124.007C27.7124 123.552 27.9296 122.77 27.5491 121.627C27.1365 120.329 26.3297 119.695 25.4771 119.972C24.8335 120.181 24.5649 120.776 24.6566 121.883L24.7844 123.357C24.9299 125.057 24.3432 126.181 23.1312 126.575C21.5764 127.08 20.0137 126.081 19.3645 124.083C18.7534 122.203 19.3736 120.698 20.785 120.036L21.2413 121.44Z" fill="#FFFDF3"/>
<path d="M27.5986 78.8607L17.6245 78.6695L18.1188 77.1482L25.6701 77.4578L25.6973 77.3742L19.4008 73.2028L19.9005 71.6648L27.4021 72.0136L27.4346 71.9133L21.177 67.7361L21.6659 66.2315L29.8474 71.9395L29.3857 73.3605L21.8235 73.0844L21.7801 73.2181L28.0657 77.4229L27.5986 78.8607Z" fill="#FFFDF3"/>
<path d="M39.1988 55.4044C37.6767 57.5142 35.0508 57.7791 32.6545 56.0382C30.2441 54.2869 29.6916 51.7127 31.2208 49.608C32.7448 47.5104 35.3533 47.2546 37.7586 49.013C40.16 50.7468 40.7299 53.3119 39.1988 55.4044ZM33.5431 54.8151C35.0912 55.9291 36.9763 56.1905 38.118 54.6191C39.2493 53.0619 38.413 51.357 36.87 50.236C35.3342 49.1201 33.433 48.8361 32.3016 50.3933C31.1599 51.9647 32.0124 53.6922 33.5431 54.8151Z" fill="#FFFDF3"/>
<path d="M53.7334 40.1738L48.123 32.4518L49.3034 31.5942L50.161 32.7746L50.2463 32.7126C49.9553 31.7289 50.3817 30.6261 51.2867 29.9577C51.4767 29.8305 51.7947 29.6103 51.9473 29.5212L52.8462 30.7584C52.7382 30.8043 52.3647 30.9779 52.0447 31.2104C50.9355 32.0163 50.6686 33.3835 51.4228 34.4216L54.9564 39.2852L53.7334 40.1738Z" fill="#FFFDF3"/>
<path d="M72.906 29.5336L68.9733 17.4299L70.411 16.9627L72.6979 24.0009L72.8651 23.9466L75.4901 18.6578L77.2622 18.0821L74.6967 23.2129L80.4959 27.0675L78.6737 27.6596L73.9144 24.4743L73.2438 25.6811L74.3438 29.0664L72.906 29.5336Z" fill="#FFFDF3"/>
<path d="M120.147 16.3481L120.581 15.0107L129.709 17.9766L129.275 19.314L125.48 18.0809L121.982 28.8472L120.46 28.3529L123.959 17.5866L120.147 16.3481Z" fill="#FFFDF3"/>
<path d="M141.596 39.1988C139.486 37.6768 139.221 35.0508 140.962 32.6546C142.713 30.2441 145.287 29.6917 147.392 31.2208C149.489 32.7448 149.745 35.3534 147.987 37.7587C146.253 40.1601 143.688 40.7299 141.596 39.1988ZM142.185 33.5431C141.071 35.0913 140.809 36.9763 142.381 38.118C143.938 39.2494 145.643 38.4131 146.764 36.8701C147.88 35.3342 148.164 33.433 146.607 32.3016C145.035 31.1599 143.308 32.0124 142.185 33.5431Z" fill="#FFFDF3"/>
<path d="M155.067 57.7419C153.708 55.8718 153.606 54.012 154.938 52.8385L155.867 54.1184C155.197 54.8554 155.338 55.8719 156.134 56.9669C157.094 58.2895 158.259 58.6816 159.532 57.7569L161.096 56.6204L161.024 56.5208C160.406 56.5677 159.175 56.7125 158.083 55.2245C156.727 53.3421 157.119 50.9062 159.55 49.1394C161.925 47.4139 164.391 47.6975 165.801 49.6387C166.891 51.139 166.333 52.2838 166.122 52.8607L166.194 52.9602L167.417 52.0717L168.285 53.2662L160.35 59.0316C158.354 60.471 156.436 59.6261 155.067 57.7419ZM160.407 50.4076C158.807 51.57 158.238 53.1348 159.302 54.5996C160.33 56.0145 161.915 56.0579 163.62 54.8304C165.272 53.6196 165.864 52.027 164.82 50.5907C163.74 49.1046 161.964 49.2763 160.407 50.4076Z" fill="#FFFDF3"/>
<path d="M168.295 76.0811C167.434 73.4591 168.779 71.2291 171.563 70.3247C174.354 69.4176 176.829 70.4341 177.63 72.9C178.249 74.8059 177.734 77.2006 174.371 78.284L173.769 78.4796L171.629 71.8928C169.73 72.5927 169.041 74.055 169.565 75.6683C169.918 76.7549 170.618 77.2855 171.286 77.4379L171.786 78.976C170.268 78.9978 168.895 77.9562 168.295 76.0811ZM172.852 71.5046L174.517 76.6286C176.027 76.1287 176.846 74.8091 176.359 73.3129C175.849 71.7414 174.289 71.1486 172.852 71.5046Z" fill="#FFFDF3"/>
<path d="M181.545 100.82H180.279V98.8164H174.742C173.521 98.8076 173.318 99.4229 173.318 100.064C173.318 100.337 173.345 100.741 173.354 100.961H171.947C171.912 100.724 171.877 100.354 171.877 99.9062C171.877 98.6318 172.668 97.2959 174.355 97.2871H180.279V95.8457H181.545V97.2871H183.83V98.8164H181.545V100.82Z" fill="#FFFDF3"/>
<path d="M174.575 120.76L169.125 118.989L169.592 117.552L181.696 121.484L181.229 122.922L176.782 121.477L176.744 121.594C177.542 122.325 177.88 123.331 177.413 124.769C176.81 126.624 175.313 127.506 172.981 126.748L167.213 124.874L167.68 123.436L173.348 125.278C174.777 125.742 175.843 125.22 176.267 123.916C176.707 122.562 176.147 121.271 174.575 120.76Z" fill="#FFFDF3"/>
<path d="M157.662 141.788C159.277 139.55 161.872 139.328 164.24 141.048C166.614 142.773 167.246 145.373 165.722 147.47C164.545 149.091 162.304 150.082 159.451 147.998L158.939 147.626L163.01 142.023C161.328 140.899 159.74 141.201 158.743 142.573C158.071 143.497 158.053 144.375 158.322 145.005L157.372 146.314C156.462 145.099 156.497 143.375 157.662 141.788ZM164.043 142.784L160.876 147.143C162.168 148.071 163.717 147.958 164.642 146.685C165.613 145.348 165.175 143.737 164.043 142.784Z" fill="#FFFDF3"/>
<path d="M143.267 156.826L148.877 164.548L147.697 165.406L146.839 164.225L146.754 164.287C147.045 165.271 146.618 166.374 145.713 167.042C145.523 167.169 145.205 167.39 145.053 167.479L144.154 166.241C144.262 166.196 144.635 166.022 144.955 165.79C146.065 164.984 146.331 163.616 145.577 162.578L142.044 157.715L143.267 156.826Z" fill="#FFFDF3"/>
</svg>
